<svg xmlns="http://www.w3.org/2000/svg">
	<defs>
		<style>
			g {display: none;}
			g:target {display: inline;}
		</style>
	</defs>

	<g id="icon-done" viewBox="0 0 34 32" fill="none">
		<path stroke="#0297D4" stroke-linecap="round" stroke-width="3" d="M10 13.263 16.518 20 32 4"/>
		<path fill="#0297D4" d="M25.32 5.081c.59-.69.512-1.736-.235-2.252a16 16 0 1 0 6.682 10.451c-.154-.895-1.07-1.404-1.945-1.159-.874.245-1.373 1.153-1.242 2.052a12.712 12.712 0 1 1-5.643-8.825c.761.496 1.794.424 2.384-.267Z"/>
	</g>
	
	<g id="location" viewBox="0 0 16 21" fill="none">
		<path fill="#777" fill-rule="evenodd" d="M7.262 20.634S0 14.518 0 8.5a8 8 0 1 1 16 0c0 6.018-7.262 12.134-7.262 12.134-.404.372-1.069.368-1.476 0ZM8 12a3.5 3.5 0 1 0 0-7 3.5 3.5 0 0 0 0 7Z" clip-rule="evenodd"/>
	</g>
	
	<g id="call-24" viewBox="0 0 15 20" fill="none">
		<path fill="#fff" d="M2.772.44 3.849.094c1.008-.322 2.086.2 2.518 1.217l.86 2.028c.375.883.167 1.922-.514 2.568L4.82 7.706c.117 1.076.478 2.135 1.084 3.177a8.702 8.702 0 0 0 2.271 2.595l2.276-.76c.862-.287 1.801.044 2.33.821l1.232 1.81c.616.904.505 2.15-.258 2.916l-.818.821c-.814.817-1.976 1.114-3.052.778-2.539-.792-4.873-3.143-7.003-7.053C.749 8.894-.003 5.571.624 2.843.888 1.695 1.706.78 2.774.439"/>
	</g>
	
	<g id="old-phone" viewBox="0 0 24 20" fill="none">
		<path fill="#fff" d="M20.707 12.704c-.115-.8-.733-1.425-1.529-1.61-3.092-.726-3.867-2.506-3.998-4.482C14.632 6.51 13.656 6.4 12 6.4c-1.656 0-2.632.11-3.18.212-.13 1.976-.906 3.756-3.998 4.481-.796.187-1.414.81-1.53 1.61l-.596 4.13c-.21 1.455.858 2.767 2.344 2.767h13.92c1.484 0 2.554-1.312 2.344-2.766l-.597-4.13ZM12 16.59c-1.674 0-3.031-1.344-3.031-3s1.357-3 3.031-3c1.674 0 3.031 1.344 3.031 3s-1.358 3-3.031 3ZM23.94 5.2C23.911 3.4 19.33.4 12 .4 4.67.4.088 3.4.06 5.2.032 7 .085 9.342 3.102 8.952c3.53-.457 3.312-1.69 3.312-3.45 0-1.23 2.87-1.526 5.586-1.526s5.585.296 5.586 1.525c0 1.762-.217 2.994 3.312 3.451 3.016.39 3.07-1.952 3.042-3.752Z"/>
	</g>
	
	<g id="money-alt" viewBox="0 0 82 73" fill="none">
		<path stroke="#344054" stroke-linecap="round" stroke-linejoin="round" stroke-width="2.08" d="M49.667 17.124H38.833c-1.724 0-3.378.613-4.597 1.703-1.218 1.09-1.903 2.568-1.903 4.11 0 1.541.684 3.02 1.903 4.11 1.22 1.09 2.873 1.702 4.597 1.702h4.334c1.724 0 3.378.613 4.597 1.703 1.218 1.09 1.903 2.568 1.903 4.11 0 .763-.168 1.519-.494 2.224a5.817 5.817 0 0 1-1.41 1.886c-.603.54-1.32.968-2.108 1.26a7.173 7.173 0 0 1-2.488.442H32.333m8.667 0v3.877m0-31.001v3.874"/>
		<path stroke="#0297D4" stroke-linecap="round" stroke-linejoin="round" stroke-width="2.08" d="M15 71.375h52m8.667-69.75H6.333C3.94 1.625 2 3.36 2 5.499V52c0 2.14 1.94 3.877 4.333 3.877h69.334c2.392 0 4.333-1.736 4.333-3.877V5.5c0-2.139-1.94-3.874-4.333-3.874Z"/>
	</g>

</svg>
